<svg width="200" height="200" viewBox="0 0 200 200" xmlns="http://www.w3.org/2000/svg">
  <defs>
    <linearGradient id="bgGradient" x1="0%" y1="0%" x2="100%" y2="100%">
      <stop offset="0%" style="stop-color:#667eea;stop-opacity:1" />
      <stop offset="100%" style="stop-color:#764ba2;stop-opacity:1" />
    </linearGradient>
    <linearGradient id="faceGradient" x1="0%" y1="0%" x2="100%" y2="100%">
      <stop offset="0%" style="stop-color:#ffeaa7;stop-opacity:1" />
      <stop offset="100%" style="stop-color:#fab1a0;stop-opacity:1" />
    </linearGradient>
    <linearGradient id="hairGradient" x1="0%" y1="0%" x2="100%" y2="100%">
      <stop offset="0%" style="stop-color:#2d3436;stop-opacity:1" />
      <stop offset="100%" style="stop-color:#636e72;stop-opacity:1" />
    </linearGradient>
    <filter id="shadow">
      <feDropShadow dx="2" dy="2" stdDeviation="4" flood-opacity="0.3"/>
    </filter>
  </defs>
  
  <!-- Background circle -->
  <circle cx="100" cy="100" r="100" fill="url(#bgGradient)"/>
  
  <!-- Face -->
  <ellipse cx="100" cy="110" rx="45" ry="50" fill="url(#faceGradient)" filter="url(#shadow)"/>
  
  <!-- Hair -->
  <path d="M 55 80 Q 100 50 145 80 Q 140 70 100 65 Q 60 70 55 80" fill="url(#hairGradient)"/>
  <path d="M 50 85 Q 55 75 65 85 Q 70 90 75 95" fill="url(#hairGradient)"/>
  <path d="M 145 85 Q 140 75 130 85 Q 125 90 120 95" fill="url(#hairGradient)"/>
  
  <!-- Eyes -->
  <ellipse cx="85" cy="100" rx="8" ry="6" fill="white"/>
  <ellipse cx="115" cy="100" rx="8" ry="6" fill="white"/>
  <circle cx="85" cy="100" r="4" fill="#2d3436"/>
  <circle cx="115" cy="100" r="4" fill="#2d3436"/>
  <circle cx="87" cy="98" r="1.5" fill="white"/>
  <circle cx="117" cy="98" r="1.5" fill="white"/>
  
  <!-- Eyebrows -->
  <path d="M 75 90 Q 85 88 95 90" stroke="#2d3436" stroke-width="2" fill="none" stroke-linecap="round"/>
  <path d="M 105 90 Q 115 88 125 90" stroke="#2d3436" stroke-width="2" fill="none" stroke-linecap="round"/>
  
  <!-- Nose -->
  <path d="M 100 105 L 98 115 L 102 115 Z" fill="#e17055" opacity="0.6"/>
  
  <!-- Mouth -->
  <path d="M 90 125 Q 100 135 110 125" stroke="#e17055" stroke-width="2" fill="none" stroke-linecap="round"/>
  
  <!-- Clothing -->
  <path d="M 60 160 Q 100 150 140 160 L 140 200 L 60 200 Z" fill="#74b9ff"/>
  
  <!-- Professional touch - glasses -->
  <ellipse cx="85" cy="100" rx="12" ry="10" fill="none" stroke="#2d3436" stroke-width="2" opacity="0.8"/>
  <ellipse cx="115" cy="100" rx="12" ry="10" fill="none" stroke="#2d3436" stroke-width="2" opacity="0.8"/>
  <line x1="97" y1="100" x2="103" y2="100" stroke="#2d3436" stroke-width="2" opacity="0.8"/>
  
  <!-- AI-themed elements -->
  <g opacity="0.3">
    <circle cx="160" cy="60" r="3" fill="#00cec9">
      <animate attributeName="opacity" values="0.3;1;0.3" dur="2s" repeatCount="indefinite"/>
    </circle>
    <circle cx="40" cy="140" r="2" fill="#fd79a8">
      <animate attributeName="opacity" values="0.2;0.8;0.2" dur="2.5s" repeatCount="indefinite"/>
    </circle>
    <circle cx="170" cy="150" r="2.5" fill="#fdcb6e">
      <animate attributeName="opacity" values="0.4;0.9;0.4" dur="1.8s" repeatCount="indefinite"/>
    </circle>
  </g>
  
  <!-- Neural network pattern in background -->
  <g opacity="0.1" stroke="white" stroke-width="1" fill="none">
    <line x1="20" y1="30" x2="40" y2="50"/>
    <line x1="40" y1="50" x2="60" y2="40"/>
    <line x1="160" y1="40" x2="180" y2="30"/>
    <line x1="180" y1="170" x2="160" y2="180"/>
    <circle cx="20" cy="30" r="2" fill="white"/>
    <circle cx="40" cy="50" r="2" fill="white"/>
    <circle cx="60" cy="40" r="2" fill="white"/>
    <circle cx="160" cy="40" r="2" fill="white"/>
    <circle cx="180" cy="30" r="2" fill="white"/>
    <circle cx="180" cy="170" r="2" fill="white"/>
    <circle cx="160" cy="180" r="2" fill="white"/>
  </g>
</svg>